<?xml version="1.0" encoding="UTF-8"?>
<svg id="Camada_2" data-name="Camada 2" xmlns="http://www.w3.org/2000/svg" viewBox="0 0 984.52 166.46">
  <defs>
    <style>
      .cls-1 {
        fill: #fff;
      }

      .cls-2 {
        fill: #f2f2f2;
      }

      .cls-3 {
        fill: #e6e6e6;
      }
    </style>
  </defs>
  <g id="Camada_2-2" data-name="Camada 2">
    <g>
      <g>
        <path class="cls-3" d="M148.52,46.76h-23.94v-20.48h70.4v20.48h-23.94v66.69h-22.53V46.76Z"/>
        <path class="cls-3" d="M200.1,30.88c0-6.91,5.25-11.65,12.42-11.65s12.54,4.74,12.54,11.65-5.25,11.52-12.42,11.52-12.54-4.61-12.54-11.52ZM201.89,48.68h21.38v64.77h-21.38V48.68Z"/>
        <path class="cls-3" d="M235.04,48.68h20.99c0,2.82,0,5.25-.26,7.94l1.02.26c4.35-6.66,11.01-9.73,18.3-9.73,14.21,0,21.5,10.11,21.5,24.32v41.99h-21.38v-35.84c0-6.53-2.94-11.01-9.22-11.01s-9.47,4.86-9.47,11.14v35.71h-21.5V48.68Z"/>
        <path class="cls-3" d="M329.64,83.88v29.57h-21.5V20.26h21.5v56.19l16.77-27.78h24.06v.38l-20.35,29.95,22.66,34.05v.38h-25.22l-17.92-29.57Z"/>
        <path class="cls-3" d="M371.75,81.06c0-20.35,13.57-34.82,33.54-34.82s32.26,13.06,32.26,33.67c0,2.3-.13,4.35-.51,6.66h-45.19c1.66,6.91,6.66,11.65,13.95,11.65,5.89,0,10.62-2.56,13.06-7.94l16.9,7.68c-5.76,11.9-17.02,17.79-30.34,17.79-19.97,0-33.67-14.34-33.67-34.69ZM418.34,74.02c-1.54-6.53-5.76-10.75-12.93-10.75s-11.39,4.35-13.31,10.75h26.24Z"/>
        <path class="cls-3" d="M446.12,48.68h20.99c0,2.94,0,5.76-.26,8.58l1.02.26c3.33-6.91,9.22-9.34,14.98-9.34,1.15,0,2.3.13,3.58.38l-.13,19.71h-6.66c-8.06,0-12.03,4.48-12.03,12.93v32.26h-21.5V48.68Z"/>
        <path class="cls-3" d="M515.11,105.51l-1.02.13c.26,2.69.26,5.12.26,7.81h-20.99V20.26h21.5v20.74c0,6.14,0,9.6-.77,15.49l1.02.26c4.74-6.91,11.39-9.6,18.56-9.6,17.28,0,28.42,15.23,28.42,34.18s-11.39,33.54-28.93,33.54c-7.55,0-13.44-2.69-18.05-9.34ZM540.71,81.06c0-8.45-5.12-14.72-13.06-14.72s-13.18,6.27-13.18,14.72,5.12,14.72,13.18,14.72c7.94-.13,13.06-6.4,13.06-14.72Z"/>
        <path class="cls-3" d="M568.48,81.06c0-20.35,13.57-34.82,33.54-34.82s32.26,13.06,32.26,33.67c0,2.3-.13,4.35-.51,6.66h-45.19c1.66,6.91,6.66,11.65,13.95,11.65,5.89,0,10.62-2.56,13.06-7.94l16.9,7.68c-5.76,11.9-17.02,17.79-30.34,17.79-19.97,0-33.67-14.34-33.67-34.69ZM615.08,74.02c-1.54-6.53-5.76-10.75-12.93-10.75s-11.39,4.35-13.31,10.75h26.24Z"/>
        <path class="cls-3" d="M642.85,48.68h20.99c0,2.82,0,5.25-.26,7.94l1.02.26c4.35-6.66,11.01-9.73,18.3-9.73,14.21,0,21.5,10.11,21.5,24.32v41.99h-21.38v-35.84c0-6.53-2.94-11.01-9.22-11.01s-9.47,4.86-9.47,11.14v35.71h-21.5V48.68Z"/>
        <path class="cls-3" d="M713.25,81.19c0-20.48,13.95-34.95,34.31-34.95,14.21,0,25.09,7.81,30.21,21.12l-18.43,7.17c-2.18-5.38-6.14-8.96-11.9-8.96-8.19,0-13.44,6.78-13.44,15.49s5.25,15.36,13.44,15.36c5.89,0,9.86-3.46,11.9-8.96l18.43,7.17c-4.99,13.44-16,21.12-30.47,21.12-20.1,0-34.05-14.34-34.05-34.56Z"/>
        <path class="cls-3" d="M784.8,20.26h21.5v21.89c0,4.86-.26,9.99-.77,14.72l1.02.26c4.61-7.42,11.65-9.98,18.3-9.98,14.21,0,21.5,10.11,21.5,24.32v41.99h-21.38v-35.84c0-6.53-3.07-11.01-9.22-11.01s-9.47,4.74-9.47,11.14v35.71h-21.5V20.26Z"/>
      </g>
      <g>
        <path class="cls-3" d="M659.14,132.76h3.07v32.69h-3.07v-32.69Z"/>
        <path class="cls-3" d="M670.08,132.76h9.31c10.61,0,16.95,6,16.95,16.32s-6.48,16.37-17.04,16.37h-9.22v-32.69ZM679.35,162.66c8.59,0,13.78-4.94,13.78-13.58s-4.8-13.54-13.78-13.54h-6.19v27.12h6.19Z"/>
        <path class="cls-3" d="M702.34,132.76h19.92v2.83h-16.85v11.81h16.13v2.78h-16.13v12.43h17.19v2.83h-20.26v-32.69Z"/>
        <path class="cls-3" d="M739.49,132.23h2.02l13.97,33.22h-3.36l-4.03-9.79h-15.31l-4.03,9.79h-3.26l14.02-33.22ZM746.98,152.87l-6.48-15.89-6.58,15.89h13.06Z"/>
        <path class="cls-3" d="M757.63,149.17c0-10.03,6.38-17.43,16.18-17.43,6.67,0,11.86,3.36,14.31,9.03l-2.83,1.44c-1.97-4.75-5.95-7.58-11.47-7.58-8.11,0-12.96,6.38-12.96,14.54s5.09,14.45,13.25,14.45c7.25,0,11.86-5.47,12.39-12h-11.71v-2.83h14.83c.05.62.1,1.15.1,1.78,0,8.45-6.19,15.89-15.7,15.89s-16.37-7.54-16.37-17.28Z"/>
        <path class="cls-3" d="M795.65,132.76h19.92v2.83h-16.85v11.81h16.13v2.78h-16.13v12.43h17.19v2.83h-20.26v-32.69Z"/>
        <path class="cls-3" d="M822.05,132.23h2.3l17.38,23.04c1.15,1.54,2.26,2.98,3.26,4.51v-27.03h3.07v32.98h-2.3l-17.38-22.99c-1.15-1.58-2.26-3.02-3.26-4.56v27.27h-3.07v-33.22Z"/>
      </g>
      <g>
        <path class="cls-2" d="M898.25,26.28h21.12l34.31,87.17h-24.96l-4.99-14.98h-31.23l-5.38,14.98h-23.3l34.43-87.17ZM917.45,79.78l-8.83-26.5-9.47,26.5h18.31Z"/>
        <path class="cls-2" d="M961.86,26.28h22.66v87.17h-22.66V26.28Z"/>
      </g>
      <path class="cls-1" d="M24.85,37.58l-1.3,2.98c-.95,2.18-3.97,2.18-4.92,0l-1.3-2.98c-2.32-5.32-6.49-9.55-11.7-11.87l-4.01-1.78c-2.17-.96-2.17-4.11,0-5.08l3.78-1.68c5.34-2.38,9.59-6.77,11.87-12.27l1.34-3.22c.93-2.25,4.03-2.25,4.96,0l1.33,3.22c2.28,5.5,6.53,9.89,11.87,12.27l3.78,1.68c2.17.96,2.17,4.11,0,5.08l-4.01,1.78c-5.21,2.32-9.38,6.55-11.7,11.87ZM16.15,113.96C21.56,81.31,33.28,10.53,110.72,10.53c-7.89,15.82-13.18,23.73-18.45,29l-5.27,5.27,7.91,5.27c-5.27,15.82-21.09,34.27-42.18,36.91-14.07,1.76-22.86,11.43-26.37,29h-10.54c.11-.66.22-1.33.34-2.02Z"/>
    </g>
  </g>
</svg>